<svg version="1.2" xmlns="http://www.w3.org/2000/svg" viewBox="0 0 600 80" width="600" height="80"><style></style><path  d="m79 66h-51.8q-4.1 0-7.7-1.5-3.6-1.6-6.3-4.3-2.7-2.7-4.3-6.3-1.6-3.6-1.6-7.6h39.8v11.9q0 1.2 1.2 1.2h10.2q1.2 0 1.2-1.2v-44.7h39.3v32.5q0 4.1-1.6 7.8-1.6 3.6-4.3 6.4-2.6 2.7-6.3 4.2-3.6 1.6-7.8 1.6zm30.1-10.1l-3.8 10.1h-7.1l19.9-52.5h40l20 52.5h-39.9l-3.9-10.1zm12.6-33.3l-10 26.7h20.1zm115.4-9.2h39.3v52.5h-39.3l-13.1-34v34h-39.3v-52.5h39.3l13.1 34zm46 0h72.1v6.6h-32.8v16.3h32.8v6.7h-32.8v16.3h32.8v6.6h-72.1zm80.1 0h39.1v45.9h32.9v6.6h-72.1v-52.4h0.1zm78.2 0h39.1v45.9h32.9v6.6h-72.1v-52.4h0.1zm78.1 0h72.1v6.6h-32.8v16.2h32.8v6.7h-32.8v16.4h32.8v6.6h-72.1z" fill="#E4E2E2"/></svg>